HIERARCHY
ROOT Hips
{
	OFFSET 0.000000 0.000000 0.000000
	CHANNELS 6 Xposition Yposition Zposition Yrotation Xrotation Zrotation 
	JOINT LeftHip
	{
		OFFSET 0.098173 -0.000219 0.000024
		CHANNELS 3 Yrotation Xrotation Zrotation
		JOINT LeftKnee
		{
			OFFSET 0.000000 -0.409037 -0.000015
			CHANNELS 3 Yrotation Xrotation Zrotation
			JOINT LeftAnkle
			{
				OFFSET 0.000000 -0.429753 0.000242
				CHANNELS 3 Yrotation Xrotation Zrotation
				JOINT LeftToe
				{
					OFFSET 0.000000 -0.083906 0.181590
					CHANNELS 3 Yrotation Xrotation Zrotation
					End Site
					{
						OFFSET 0.000000 0.000000 0.000000
					}
				}
			}
		}
	}
	JOINT RightHip
	{
		OFFSET -0.098173 -0.000196 0.000022
		CHANNELS 3 Yrotation Xrotation Zrotation
		JOINT RightKnee
		{
			OFFSET 0.000000 -0.409037 -0.000015
			CHANNELS 3 Yrotation Xrotation Zrotation
			JOINT RightAnkle
			{
				OFFSET 0.000000 -0.429753 0.000242
				CHANNELS 3 Yrotation Xrotation Zrotation
				JOINT RightToe
				{
					OFFSET 0.000000 -0.083906 0.181590
					CHANNELS 3 Yrotation Xrotation Zrotation
					End Site
					{
						OFFSET 0.000000 0.000000 0.000000
					}
				}
			}
		}
	}
	JOINT Chest
	{
		OFFSET 0.000000 0.119819 -0.013313
		CHANNELS 3 Yrotation Xrotation Zrotation
		JOINT Chest3
		{
			OFFSET 0.000000 0.213365 -0.010277
			CHANNELS 3 Yrotation Xrotation Zrotation
			JOINT Chest4
			{
				OFFSET 0.000000 0.101957 0.000085
				CHANNELS 3 Yrotation Xrotation Zrotation
				JOINT Neck
				{
					OFFSET 0.000000 0.137769 0.000000
					CHANNELS 3 Yrotation Xrotation Zrotation
					JOINT Head
					{
						OFFSET 0.000000 0.090348 0.000182
						CHANNELS 3 Yrotation Xrotation Zrotation
						End Site
						{
							OFFSET 0.000000 0.000000 0.000000
						}
					}
				}
				JOINT LeftCollar
				{
					OFFSET 0.026598 0.077176 0.000000
					CHANNELS 3 Yrotation Xrotation Zrotation
					JOINT LeftShoulder
					{
						OFFSET 0.125155 0.000000 0.000000
						CHANNELS 3 Yrotation Xrotation Zrotation
						JOINT LeftElbow
						{
							OFFSET 0.295479 0.000000 0.000000
							CHANNELS 3 Yrotation Xrotation Zrotation
							JOINT LeftWrist
							{
								OFFSET 0.250185 0.000000 -0.000004
								CHANNELS 3 Yrotation Xrotation Zrotation
								End Site
								{
									OFFSET 0.000000 0.000000 0.000000
								}
							}
						}
					}
				}
				JOINT RightCollar
				{
					OFFSET -0.026598 0.077176 0.000000
					CHANNELS 3 Yrotation Xrotation Zrotation
					JOINT RightShoulder
					{
						OFFSET -0.125155 0.000000 0.000000
						CHANNELS 3 Yrotation Xrotation Zrotation
						JOINT RightElbow
						{
							OFFSET -0.295479 0.000000 0.000000
							CHANNELS 3 Yrotation Xrotation Zrotation
							JOINT RightWrist
							{
								OFFSET -0.250185 0.000000 -0.000004
								CHANNELS 3 Yrotation Xrotation Zrotation
								End Site
								{
									OFFSET 0.000000 0.000000 0.000000
								}
							}
						}
					}
				}
			}
		}
	}
}
MOTION
Frames: 8
Frame Time: 0.016667
0.000000 0.000000 0.000000 116.690575 356.066666 0.523945 14.649348 0.920828 356.802224 4.869910 18.181320 359.845001 23.893064 344.641668 358.447236 0.896075 358.601692 358.815768 359.825611 344.477246 355.544851 1.210631 10.004010 0.224523 358.970252 8.608200 6.313701 359.906825 0.253554 358.437596 0.305367 358.491260 359.929947 359.470404 352.786787 0.109679 357.661158 5.187661 359.807119 357.053677 30.662496 2.505212 354.150945 22.227512 4.427217 1.488218 1.882998 352.730761 10.700465 356.391059 283.964925 290.501717 316.271259 328.194222 357.950347 357.879537 26.514459 357.020594 1.827265 6.677649 345.528553 355.874798 78.940198 74.957654 327.084199 10.869355 6.330309 357.338662 324.676976 
0.000000 0.000000 0.000000 117.046851 356.006294 0.410248 14.435109 0.961887 356.845741 4.830575 17.828202 359.843285 23.759985 344.937116 358.659715 0.909709 358.637846 358.887421 359.123342 344.554657 355.676624 0.899423 10.370978 0.208884 358.455642 8.284184 6.147891 359.572646 0.236370 358.503660 0.289163 358.486901 0.043084 359.443344 352.780679 0.209045 357.543749 5.155146 359.836944 357.892686 30.867060 2.686576 355.565985 22.657289 5.017166 1.588962 1.875151 352.683187 10.756399 356.270596 284.141418 289.236735 319.894533 329.983883 358.816325 358.995312 25.016746 356.996028 1.861819 6.657938 345.208046 356.061692 78.793277 74.972517 327.229966 10.964734 6.325179 357.286008 324.797595 
0.000000 0.000000 0.000000 117.424323 355.940884 0.305058 14.210244 1.030604 356.893315 4.776162 17.450595 359.841977 23.610876 345.240413 358.855356 0.921987 358.660663 358.961608 358.580873 344.610908 355.795250 0.702297 10.968684 0.218227 357.907523 7.739986 5.895004 359.149626 0.274730 358.715760 0.274949 358.515857 0.140071 359.419895 352.803592 0.294453 357.407482 5.112476 359.874570 358.664025 31.052119 2.861929 356.986134 22.960719 5.619538 1.714161 1.894925 352.623032 10.929553 356.190025 284.336079 287.461550 324.037736 331.865659 359.637120 0.558964 23.527751 356.984743 1.881766 6.640876 344.959037 356.243964 78.669898 74.966497 327.368056 11.055692 6.362933 357.211694 324.902403 
0.000000 0.000000 0.000000 117.835452 355.884099 0.205581 13.973581 1.106291 356.942921 4.708412 17.057249 359.840894 23.443376 345.550785 359.038956 0.942059 358.694244 359.030927 358.130607 344.692578 355.921638 0.544320 11.667641 0.203400 357.370821 7.086591 5.596705 358.884334 0.358031 359.010764 0.262437 358.559129 0.224168 359.399418 352.839192 0.368859 357.248615 5.078681 359.915094 359.360430 31.211439 3.027356 358.451054 23.167568 6.137110 1.816812 1.975304 352.565562 10.892451 356.074242 284.515346 285.494086 328.542728 333.927375 359.648436 1.794977 21.928447 356.985140 1.894379 6.626966 344.762192 356.411085 78.570071 74.943575 327.496647 11.158359 6.378941 357.134245 325.013138 
0.000000 0.000000 0.000000 118.276792 355.855938 0.121114 13.736316 1.154198 356.978075 4.632974 16.680308 359.837306 23.262364 345.854499 359.211984 0.957284 358.751509 359.107600 357.697534 344.854810 356.044032 0.393363 12.273350 0.178902 356.817834 6.557231 5.295685 358.940621 0.397297 359.298596 0.252411 358.594465 0.294474 359.381979 352.868080 0.431436 357.091023 5.043140 359.953006 359.954709 31.337068 3.166771 359.879945 23.346281 6.570216 1.899942 2.061855 352.534509 10.733421 355.927388 284.736966 283.931704 332.699722 335.494469 359.312903 2.572585 20.423486 356.990278 1.912010 6.615220 344.599075 356.555417 78.480843 74.902389 327.600299 11.261301 6.329664 357.058590 325.136206 
0.000000 0.000000 0.000000 118.742230 355.865895 0.057773 13.504389 1.169808 356.989077 4.551725 16.309905 359.830447 23.072819 346.156065 359.379189 0.966357 358.842451 359.194270 357.257880 344.910871 356.153429 0.220871 13.154859 0.143869 356.266931 6.041932 5.022119 358.851091 0.211662 359.627017 0.245464 358.608231 0.347254 359.368225 352.878644 0.479059 356.920119 5.037577 0.002118 0.442441 31.420609 3.272491 1.196324 23.496957 6.905776 1.960766 2.133329 352.501890 10.400952 355.664379 285.026444 282.889298 336.268487 336.668981 358.990460 3.010432 19.252353 357.007284 1.911607 6.596690 344.478247 356.667434 78.410966 74.831581 327.682889 11.354189 6.230968 356.999299 325.276269 
0.000000 0.000000 0.000000 119.237705 355.904248 0.010091 13.270201 1.167467 356.984060 4.461749 15.936504 359.822573 22.870152 346.459997 359.539169 0.990954 358.963609 359.277253 356.853178 344.935860 356.266730 0.003515 14.164544 0.080160 355.759794 5.533142 4.740262 358.762772 359.952131 359.956943 0.241661 358.609210 0.383169 359.357930 352.878287 0.512028 356.739781 5.061311 0.059309 0.831873 31.466108 3.350439 2.334930 23.595055 7.159322 1.988046 2.126760 352.485341 9.949096 355.363783 285.394877 282.257933 339.294720 337.562232 359.353484 3.416445 18.132371 357.032301 1.890865 6.572816 344.393862 356.761660 78.360779 74.740412 327.746266 11.441191 6.125689 356.961874 325.434184 
0.000000 0.000000 0.000000 119.777651 355.962285 359.970067 13.023643 1.144949 356.973245 4.361098 15.584424 359.814663 22.645115 346.756174 359.686386 1.047741 359.104092 359.346618 356.498106 344.980683 356.399084 359.780370 15.182714 359.979962 355.280640 4.958143 4.444749 358.721280 359.798874 0.246887 0.240981 358.603668 0.404596 359.350364 352.872175 0.532067 356.561506 5.077534 0.103644 1.128984 31.490161 3.405387 3.242493 23.642200 7.367192 1.995030 1.833423 352.553617 9.451307 355.209746 285.920469 282.376317 341.217014 337.911043 359.915945 4.251330 17.044819 357.054118 1.876403 6.555584 344.319782 356.854627 78.309279 74.646720 327.779378 11.536292 6.015839 356.944282 325.598546 
